<?xml version="1.0" encoding="UTF-8" standalone="no"?>
<svg
   xmlns:dc="http://purl.org/dc/elements/1.1/"
   xmlns:cc="http://creativecommons.org/ns#"
   xmlns:rdf="http://www.w3.org/1999/02/22-rdf-syntax-ns#"
   xmlns:svg="http://www.w3.org/2000/svg"
   xmlns="http://www.w3.org/2000/svg"
   xmlns:sodipodi="http://sodipodi.sourceforge.net/DTD/sodipodi-0.dtd"
   xmlns:inkscape="http://www.inkscape.org/namespaces/inkscape"
   id="Layer_1"
   data-name="Layer 1"
   width="795"
   height="220"
   viewBox="0 0 795 220"
   version="1.1"
   sodipodi:docname="wine-img-1.svg"
   inkscape:version="0.92.5 (2060ec1f9f, 2020-04-08)">
  <metadata
     id="metadata16">
    <rdf:RDF>
      <cc:Work
         rdf:about="">
        <dc:format>image/svg+xml</dc:format>
        <dc:type
           rdf:resource="http://purl.org/dc/dcmitype/StillImage" />
      </cc:Work>
    </rdf:RDF>
  </metadata>
  <sodipodi:namedview
     pagecolor="#ffffff"
     bordercolor="#666666"
     borderopacity="1"
     objecttolerance="10"
     gridtolerance="10"
     guidetolerance="10"
     inkscape:pageopacity="0"
     inkscape:pageshadow="2"
     inkscape:window-width="1920"
     inkscape:window-height="1023"
     id="namedview14"
     showgrid="false"
     inkscape:zoom="1.9781201"
     inkscape:cx="219.75989"
     inkscape:cy="81.193429"
     inkscape:window-x="0"
     inkscape:window-y="0"
     inkscape:window-maximized="1"
     inkscape:current-layer="Layer_1" />
  <defs
     id="defs9">
    <style
       id="style2">.cls-1{fill:url(#linear-gradient);}</style>
    <linearGradient
       id="linear-gradient"
       x1="397.5"
       y1="86"
       x2="397.5"
       y2="220"
       gradientUnits="userSpaceOnUse">
      <stop
         offset="0"
         stop-color="#faab2b"
         id="stop4" />
      <stop
         offset="1"
         stop-color="#fb8b1b"
         id="stop6" />
    </linearGradient>
  </defs>
  <path
     class="cls-1"
     d="M745.73,105.39a73.51,73.51,0,0,0-99.49,0,73.52,73.52,0,0,1-99.5,0,73.51,73.51,0,0,0-99.49,0c-28.7,25.85-70.8,25.85-99.5,0a73.51,73.51,0,0,0-99.49,0,73.52,73.52,0,0,1-99.5,0,73.51,73.51,0,0,0-99.49,0A74.15,74.15,0,0,1-.48,124.78V220h796V124.78A74.15,74.15,0,0,1,745.73,105.39Z"
     id="path11"
     style="opacity:1;fill:#800033" />
</svg>
