<?xml version="1.0" encoding="UTF-8" standalone="no"?>
<svg
   xmlns:dc="http://purl.org/dc/elements/1.1/"
   xmlns:cc="http://creativecommons.org/ns#"
   xmlns:rdf="http://www.w3.org/1999/02/22-rdf-syntax-ns#"
   xmlns:svg="http://www.w3.org/2000/svg"
   xmlns="http://www.w3.org/2000/svg"
   xmlns:sodipodi="http://sodipodi.sourceforge.net/DTD/sodipodi-0.dtd"
   xmlns:inkscape="http://www.inkscape.org/namespaces/inkscape"
   id="Layer_1"
   data-name="Layer 1"
   width="795"
   height="220"
   viewBox="0 0 795 220"
   version="1.1"
   sodipodi:docname="wine-img-2.svg"
   inkscape:version="0.92.5 (2060ec1f9f, 2020-04-08)">
  <metadata
     id="metadata13">
    <rdf:RDF>
      <cc:Work
         rdf:about="">
        <dc:format>image/svg+xml</dc:format>
        <dc:type
           rdf:resource="http://purl.org/dc/dcmitype/StillImage" />
      </cc:Work>
    </rdf:RDF>
  </metadata>
  <sodipodi:namedview
     pagecolor="#ffffff"
     bordercolor="#666666"
     borderopacity="1"
     objecttolerance="10"
     gridtolerance="10"
     guidetolerance="10"
     inkscape:pageopacity="0"
     inkscape:pageshadow="2"
     inkscape:window-width="1920"
     inkscape:window-height="1023"
     id="namedview11"
     showgrid="false"
     inkscape:zoom="0.34968553"
     inkscape:cx="397.5"
     inkscape:cy="110"
     inkscape:window-x="0"
     inkscape:window-y="0"
     inkscape:window-maximized="1"
     inkscape:current-layer="Layer_1" />
  <defs
     id="defs4">
    <style
       id="style2">.cls-1{fill:#fbd383;}</style>
  </defs>
  <path
     class="cls-1"
     d="M651.73,106.39a73.51,73.51,0,0,0-99.49,0,73.52,73.52,0,0,1-99.5,0,73.51,73.51,0,0,0-99.49,0c-28.7,25.85-70.8,25.85-99.5,0a73.51,73.51,0,0,0-99.49,0,73.52,73.52,0,0,1-99.5,0A74.1,74.1,0,0,0,5,87a74.1,74.1,0,0,0-49.74,19.39,74.15,74.15,0,0,1-49.75,19.39V221h796V125.78A74.15,74.15,0,0,1,651.73,106.39Z"
     id="path6"
     style="fill:#d400aa" />
  <path
     class="cls-1"
     d="M1447.93,106.35a73.51,73.51,0,0,0-99.49,0,73.52,73.52,0,0,1-99.5,0,73.51,73.51,0,0,0-99.49,0c-28.7,25.85-70.8,25.85-99.5,0a73.51,73.51,0,0,0-99.49,0,73.52,73.52,0,0,1-99.5,0,73.51,73.51,0,0,0-99.49,0,74.15,74.15,0,0,1-49.75,19.39V221h796V125.74A74.15,74.15,0,0,1,1447.93,106.35Z"
     id="path8"
     style="fill:#d400aa" />
</svg>
